<svg width="105" height="105" viewBox="0 0 105 105" fill="none" xmlns="http://www.w3.org/2000/svg">
    <path fill-rule="evenodd" clip-rule="evenodd"
        d="M0 52.5C0 23.5051 23.5051 0 52.5 0C81.4949 0 105 23.5051 105 52.5C105 81.4949 81.4949 105 52.5 105C23.5051 105 0 81.4949 0 52.5ZM52 25.1667C53.3807 25.1667 54.5 26.286 54.5 27.6667V71.7899L67.1369 57.6663C68.0575 56.6374 69.638 56.5496 70.667 57.4702C71.696 58.3909 71.7838 59.9714 70.8631 61.0003L54.0402 79.8024C54.0098 79.8364 53.9787 79.8694 53.9471 79.9015C53.4888 80.4698 52.7869 80.8333 52 80.8333C51.2131 80.8333 50.5112 80.4698 50.0529 79.9015C50.0213 79.8694 49.9902 79.8364 49.9598 79.8024L33.1369 61.0003C32.2162 59.9714 32.3041 58.3909 33.333 57.4702C34.362 56.5496 35.9425 56.6374 36.8631 57.6663L49.5 71.7899V27.6667C49.5 26.286 50.6193 25.1667 52 25.1667Z"
        fill="#D51664" />
</svg>