<svg width="675" height="675" viewBox="0 0 675 675" fill="none" xmlns="http://www.w3.org/2000/svg">
<g filter="url(#filter0_d_257_1670)">
<path d="M228.375 400.52C215.677 398.295 209.507 385.3 215.031 372.52C217.972 365.628 224.788 361.536 233.253 361.464C236.912 361.464 239.207 361.895 241.718 363.043C245.162 364.551 245.233 364.623 245.592 363.187C245.807 362.325 246.596 361.751 247.457 361.751C248.749 361.751 248.82 362.038 248.39 365.556C248.175 367.567 247.959 370.51 247.959 372.018C247.959 374.172 247.672 374.674 246.596 374.674C245.735 374.674 245.09 373.956 244.731 372.736C243.512 367.854 239.207 364.623 233.898 364.623C229.881 364.623 226.653 366.561 224.429 370.295C222.635 373.31 222.492 374.172 222.492 381.495C222.492 388.1 222.707 389.823 223.927 391.833C225.864 395.136 228.518 396.931 232.033 397.433C238.49 398.295 243.512 395.567 246.166 389.751C248.39 384.797 249.394 385.946 249.394 393.7C249.394 399.228 249.179 400.52 248.318 400.52C247.744 400.52 247.098 399.802 246.883 398.869L246.453 397.218L243.081 398.797C239.135 400.664 233.181 401.382 228.375 400.52Z" fill="white"/>
<path d="M228.461 400.028L228.463 400.028C233.177 400.873 239.025 400.163 242.867 398.345L242.869 398.344L246.241 396.765L246.785 396.51L246.937 397.092L247.367 398.743L247.369 398.75L247.37 398.757C247.461 399.148 247.64 399.485 247.842 399.715C248.055 399.957 248.234 400.02 248.318 400.02C248.362 400.02 248.376 400.013 248.38 400.011C248.383 400.009 248.403 399.999 248.436 399.951C248.513 399.838 248.607 399.595 248.685 399.105C248.839 398.137 248.894 396.473 248.894 393.7C248.894 391.769 248.831 390.265 248.706 389.172C248.643 388.625 248.565 388.194 248.477 387.868C248.388 387.542 248.298 387.367 248.235 387.287C248.224 387.293 248.211 387.302 248.196 387.313C248.142 387.353 248.071 387.418 247.986 387.516C247.631 387.923 247.177 388.721 246.622 389.956L246.621 389.959C245.255 392.95 243.267 395.175 240.764 396.535C238.262 397.895 235.282 398.371 231.967 397.929L231.963 397.928C228.29 397.403 225.507 395.514 223.497 392.089C222.195 389.941 221.992 388.071 221.992 381.495C221.992 377.847 222.026 375.753 222.295 374.194C222.571 372.597 223.092 371.565 223.999 370.039L223.999 370.039C226.304 366.17 229.687 364.123 233.898 364.123C239.416 364.123 243.931 367.489 245.214 372.604C245.554 373.756 246.084 374.174 246.596 374.174C246.834 374.174 246.972 374.145 247.057 374.107C247.125 374.076 247.182 374.029 247.238 373.922C247.302 373.801 247.361 373.603 247.402 373.28C247.442 372.96 247.459 372.548 247.459 372.018C247.459 370.484 247.677 367.519 247.893 365.503L247.893 365.496L247.893 365.496C248.001 364.615 248.076 363.951 248.108 363.445C248.142 362.929 248.127 362.63 248.084 362.454C248.052 362.325 248.021 362.314 248.006 362.308C248.005 362.308 248.004 362.307 248.003 362.307C247.931 362.275 247.787 362.251 247.457 362.251C246.813 362.251 246.234 362.681 246.077 363.308L228.461 400.028ZM228.461 400.028C216.134 397.867 210.072 385.252 215.49 372.719L215.491 372.717C218.341 366.039 224.953 362.035 233.255 361.964C236.862 361.964 239.082 362.387 241.51 363.498L241.51 363.498L241.518 363.501C241.603 363.539 241.687 363.575 241.768 363.611C242.504 363.934 243.085 364.188 243.542 364.369C244.034 364.564 244.447 364.7 244.785 364.718C244.965 364.728 245.154 364.707 245.333 364.621C245.515 364.534 245.645 364.399 245.739 364.254C245.905 363.998 245.994 363.642 246.076 363.311L246.077 363.308L228.461 400.028Z" stroke="white"/>
</g>
<g filter="url(#filter1_d_257_1670)">
<path d="M348.035 400.233C343.516 399.084 341.794 398.223 338.207 394.92C330.603 388.028 329.885 376.9 336.629 369.002C345.022 359.238 360.518 358.736 369.27 367.997C372.857 371.731 374.292 374.89 374.722 379.843C375.225 385.228 373.574 389.679 369.414 394.131C364.177 399.731 355.639 402.172 348.035 400.233ZM358.94 396.428C365.898 393.197 368.265 379.125 363.388 370.438C359.657 363.69 350.33 362.613 345.022 368.356C340.144 373.525 339.57 386.52 343.946 393.197C346.529 397.218 353.989 398.797 358.94 396.428Z" fill="white"/>
<path d="M348.159 399.749L348.158 399.749C345.909 399.177 344.396 398.686 343.007 397.943C341.619 397.201 340.328 396.193 338.546 394.552L338.543 394.55C331.14 387.841 330.44 377.021 337.008 369.328C345.214 359.783 360.364 359.3 368.906 368.341L368.909 368.344C370.677 370.183 371.895 371.861 372.725 373.671C373.556 375.481 374.012 377.45 374.224 379.887L374.225 379.89C374.712 385.114 373.124 389.428 369.049 393.789C363.939 399.252 355.59 401.643 348.159 399.749ZM359.153 396.88C362.852 395.161 365.232 390.633 366.095 385.563C366.962 380.469 366.33 374.659 363.824 370.195C359.925 363.143 350.191 362.029 344.657 368.015C342.1 370.725 340.723 375.407 340.514 380.19C340.305 384.981 341.263 390.014 343.527 393.469C344.915 395.63 347.568 397.08 350.45 397.698C353.34 398.317 356.559 398.121 359.153 396.88Z" stroke="white"/>
</g>
<g filter="url(#filter2_d_257_1670)">
<path d="M436.992 400.233C432.185 399.013 429.603 397.577 426.518 394.274C422.285 389.895 421.209 387.238 421.209 381.136C421.209 376.541 421.496 375.249 423.146 372.449C427.379 365.197 433.907 361.536 442.372 361.536C454.138 361.536 462.817 369.146 463.751 380.131C464.54 390.541 456.075 399.659 444.524 400.807C442.301 401.023 439 400.807 436.992 400.233ZM449.33 395.638C453.061 392.982 454.854 388.243 454.783 381.351C454.783 370.941 450.048 364.623 442.444 364.623C434.768 364.623 430.106 370.941 429.961 381.207C429.89 388.818 432.903 394.92 437.637 397.002C440.292 398.151 446.892 397.361 449.33 395.638Z" fill="white"/>
<path d="M437.13 399.752L437.123 399.75L437.115 399.749C434.735 399.144 432.935 398.494 431.356 397.599C429.78 396.707 428.402 395.558 426.883 393.933L426.883 393.933L426.878 393.927C424.779 391.755 423.503 390.051 422.74 388.164C421.977 386.277 421.709 384.162 421.709 381.136C421.709 378.839 421.782 377.416 422.047 376.228C422.309 375.054 422.763 374.083 423.577 372.702L423.578 372.701C427.718 365.607 434.08 362.036 442.372 362.036C453.901 362.036 462.342 369.469 463.252 380.17C464.016 390.263 455.802 399.183 444.475 400.31C442.301 400.52 439.066 400.306 437.13 399.752ZM449.619 396.047L449.621 396.046C453.542 393.253 455.355 388.315 455.283 381.349C455.283 376.077 454.085 371.779 451.867 368.786C449.637 365.775 446.402 364.123 442.444 364.123C438.451 364.123 435.217 365.774 432.978 368.766C430.751 371.74 429.534 376.001 429.461 381.2L429.461 381.203C429.389 388.909 432.439 395.263 437.436 397.46L437.439 397.461C438.179 397.782 439.156 397.953 440.212 398.015C441.276 398.078 442.456 398.031 443.623 397.894C445.932 397.622 448.295 396.982 449.619 396.047Z" stroke="white"/>
</g>
<g filter="url(#filter3_d_257_1670)">
<path d="M253.698 399.515C253.698 399.013 254.703 398.367 255.85 398.079C257.285 397.792 258.289 397.074 258.72 395.854C259.509 393.772 259.724 370.438 259.007 366.849C258.648 365.054 258.074 364.479 256.496 364.12C255.348 363.905 254.416 363.259 254.416 362.684C254.416 361.895 256.066 361.751 263.239 361.895C268.548 362.038 271.92 362.397 271.848 362.828C271.776 363.259 271.059 363.618 270.198 363.761C267.042 364.264 266.611 366.274 266.611 379.843C266.611 386.808 266.898 393.341 267.329 394.346C268.189 396.715 272.709 397.936 278.089 397.361C283.039 396.787 285.12 395.351 286.555 391.833C287.129 390.325 288.133 389.033 288.707 389.033C289.568 389.033 289.639 389.679 289.281 392.336C289.066 394.202 288.85 396.787 288.85 398.079V400.52H271.274C256.855 400.52 253.698 400.377 253.698 399.515Z" fill="white"/>
<path d="M259.497 366.751L259.497 366.751C259.312 365.826 259.056 365.121 258.574 364.605C258.087 364.083 257.431 363.82 256.607 363.633L256.598 363.631L256.588 363.629C256.074 363.532 255.621 363.341 255.31 363.126C255.011 362.919 254.934 362.761 254.919 362.703C254.933 362.693 254.957 362.679 254.994 362.662C255.177 362.578 255.534 362.495 256.182 362.438C257.458 362.324 259.635 362.323 263.228 362.395C265.876 362.466 268.03 362.591 269.508 362.751C270.177 362.823 270.693 362.901 271.049 362.98C270.817 363.101 270.492 363.205 270.118 363.268C269.284 363.401 268.548 363.646 267.957 364.22C267.373 364.788 266.994 365.62 266.733 366.794C266.216 369.121 266.111 373.081 266.111 379.843C266.111 383.331 266.183 386.714 266.309 389.353C266.372 390.672 266.449 391.811 266.538 392.686C266.582 393.123 266.63 393.5 266.681 393.804C266.73 394.088 266.787 394.345 266.863 394.529C267.384 395.942 268.932 396.899 270.881 397.439C272.865 397.99 275.406 398.151 278.142 397.859L278.147 397.858C280.652 397.567 282.501 397.052 283.916 396.118C285.344 395.175 286.276 393.841 287.018 392.022L287.018 392.022L287.022 392.011C287.293 391.299 287.665 390.643 288.027 390.173C288.208 389.938 288.377 389.763 288.518 389.651C288.651 389.547 288.714 389.535 288.713 389.533C288.713 389.533 288.711 389.533 288.707 389.533C288.785 389.533 288.834 389.541 288.862 389.548C288.875 389.552 288.882 389.555 288.886 389.557L288.889 389.559L288.89 389.559L288.891 389.56C288.891 389.561 288.892 389.562 288.894 389.564C288.897 389.568 288.902 389.576 288.909 389.591C288.924 389.622 288.943 389.677 288.958 389.769C289.024 390.174 288.968 390.918 288.785 392.269L288.785 392.269L288.784 392.278C288.568 394.149 288.35 396.757 288.35 398.079V400.02H271.274C264.06 400.02 259.681 399.984 257.107 399.842C255.812 399.77 255.011 399.673 254.542 399.552C254.401 399.515 254.307 399.481 254.246 399.453C254.25 399.448 254.254 399.443 254.259 399.438C254.329 399.352 254.448 399.247 254.619 399.134C254.958 398.91 255.438 398.699 255.961 398.567C257.509 398.254 258.685 397.449 259.19 396.025C259.258 395.843 259.31 395.588 259.355 395.302C259.402 395.002 259.446 394.631 259.486 394.204C259.567 393.348 259.638 392.243 259.698 390.972C259.818 388.427 259.897 385.196 259.928 381.921C259.96 378.646 259.944 375.322 259.876 372.59C259.808 369.878 259.687 367.699 259.497 366.751ZM271.488 363.115C271.488 363.115 271.487 363.115 271.485 363.113C271.487 363.115 271.488 363.115 271.488 363.115Z" stroke="white"/>
</g>
<g filter="url(#filter4_d_257_1670)">
<path d="M289.568 399.443C289.568 398.869 289.998 398.366 290.572 398.366C293.298 398.366 295.307 394.705 301.835 378.12C308.22 361.608 308.507 361.033 310.444 361.033C312.022 361.033 312.596 361.536 313.457 363.761C314.103 365.197 317.187 372.879 320.416 380.777C323.644 388.674 326.729 395.71 327.374 396.356C327.948 397.002 329.383 397.792 330.531 398.008C331.679 398.295 332.611 398.941 332.611 399.515C332.611 400.305 330.818 400.52 322.927 400.52C314.964 400.52 313.242 400.305 313.242 399.515C313.242 398.869 314.103 398.366 315.251 398.223C317.69 397.936 318.12 395.782 316.47 391.474L315.251 388.315H308.22H301.118L299.898 392.192C298.535 396.5 299.109 398.366 301.835 398.366C302.624 398.366 303.198 398.869 303.198 399.443C303.198 400.305 301.979 400.52 296.383 400.52C290.787 400.52 289.568 400.305 289.568 399.443ZM313.959 385.084C313.959 383.649 308.651 371.156 308.22 371.587C307.933 371.874 307.144 373.597 306.427 375.392C305.781 377.187 304.561 380.131 303.844 382.069L302.481 385.443H308.22C311.377 385.443 313.959 385.3 313.959 385.084Z" fill="white"/>
<path d="M302.302 378.301L302.301 378.303C299.039 386.589 296.893 391.683 295.215 394.705C293.554 397.697 292.243 398.866 290.572 398.866C290.319 398.866 290.068 399.099 290.068 399.443C290.068 399.491 290.076 399.509 290.078 399.513L290.078 399.513C290.08 399.517 290.089 399.535 290.133 399.566C290.238 399.639 290.471 399.733 290.956 399.811C291.914 399.965 293.576 400.02 296.383 400.02C299.19 400.02 300.852 399.965 301.81 399.811C302.295 399.733 302.528 399.639 302.633 399.566C302.677 399.535 302.686 399.517 302.688 399.513L302.688 399.513C302.69 399.509 302.698 399.491 302.698 399.443C302.698 399.236 302.448 398.866 301.835 398.866C301.103 398.866 300.459 398.742 299.939 398.44C299.406 398.129 299.047 397.654 298.856 397.044C298.492 395.877 298.739 394.199 299.421 392.042C299.421 392.042 299.421 392.042 299.422 392.041L300.641 388.165L300.751 387.815H301.118H308.22H315.251H315.593L315.717 388.135L316.936 391.294L316.937 391.295C317.767 393.463 318.118 395.19 317.885 396.447C317.766 397.094 317.488 397.634 317.029 398.031C316.576 398.424 315.988 398.639 315.311 398.719M302.302 378.301L315.251 398.223M302.302 378.301C305.5 370.029 307.156 365.789 308.254 363.609C308.807 362.512 309.183 362.013 309.488 361.775C309.75 361.57 309.988 361.533 310.444 361.533C311.182 361.533 311.571 361.651 311.885 361.934C312.236 362.25 312.56 362.827 312.991 363.942L312.996 363.954L313.001 363.967C313.408 364.872 314.797 368.292 316.585 372.693C317.613 375.223 318.772 378.078 319.953 380.966C321.568 384.917 323.148 388.656 324.407 391.489C325.035 392.905 325.585 394.098 326.02 394.981C326.237 395.422 326.428 395.79 326.587 396.071C326.731 396.325 326.876 396.56 327.009 396.698M302.302 378.301L327.009 396.698M315.311 398.719C315.31 398.719 315.31 398.719 315.309 398.719L315.251 398.223M315.311 398.719C315.311 398.719 315.312 398.719 315.313 398.719L315.251 398.223M315.311 398.719C314.786 398.785 314.36 398.93 314.081 399.105C313.817 399.269 313.752 399.412 313.743 399.494M315.251 398.223C314.103 398.366 313.242 398.869 313.242 399.515C313.242 400.305 314.964 400.52 322.927 400.52C330.818 400.52 332.611 400.305 332.611 399.515C332.611 398.941 331.679 398.295 330.531 398.008M313.743 399.494C313.73 399.484 313.726 399.479 313.728 399.481C313.73 399.484 313.735 399.492 313.739 399.503C313.741 399.509 313.741 399.513 313.742 399.515C313.742 399.516 313.742 399.516 313.742 399.516C313.742 399.516 313.742 399.516 313.742 399.515C313.742 399.509 313.742 399.502 313.743 399.494ZM313.743 399.494C313.759 399.506 313.79 399.526 313.844 399.551C314.051 399.646 314.445 399.741 315.151 399.817C316.546 399.966 318.939 400.02 322.927 400.02C326.878 400.02 329.272 399.966 330.675 399.817C331.386 399.741 331.789 399.646 332.003 399.55C332.057 399.525 332.089 399.505 332.107 399.492M332.107 399.492C332.11 399.503 332.111 399.511 332.111 399.515C332.111 399.517 332.111 399.51 332.115 399.498C332.119 399.486 332.125 399.478 332.127 399.475C332.128 399.474 332.123 399.48 332.107 399.492ZM332.107 399.492C332.089 399.43 332.008 399.273 331.711 399.061C331.397 398.836 330.942 398.628 330.423 398.496M330.423 398.496C330.428 398.497 330.434 398.498 330.439 398.499L330.531 398.008M330.423 398.496C329.79 398.375 329.102 398.104 328.503 397.785C327.909 397.469 327.353 397.081 327.009 396.698M330.423 398.496C330.419 398.495 330.414 398.494 330.41 398.493L330.531 398.008M330.531 398.008L327.009 396.698M305.959 375.215L305.962 375.207C306.324 374.303 306.704 373.414 307.032 372.713C307.195 372.362 307.348 372.054 307.481 371.811C307.602 371.589 307.736 371.364 307.866 371.234M305.959 375.215L308.22 371.587M305.959 375.215L305.956 375.223C305.636 376.112 305.173 377.288 304.697 378.493C304.665 378.573 304.634 378.654 304.602 378.734C304.159 379.853 303.714 380.979 303.378 381.889M305.959 375.215L306.427 375.392C306.082 376.349 305.575 377.633 305.068 378.916C304.623 380.04 304.179 381.164 303.844 382.069M307.866 371.234L308.22 371.587M307.866 371.234C307.866 371.234 307.866 371.234 307.866 371.234L308.22 371.587M307.866 371.234C307.957 371.143 308.08 371.085 308.216 371.077C308.338 371.07 308.435 371.106 308.494 371.134C308.603 371.188 308.681 371.267 308.724 371.314C308.82 371.419 308.92 371.566 309.016 371.723C309.215 372.046 309.466 372.522 309.747 373.091C310.311 374.236 311.019 375.811 311.711 377.44C312.404 379.07 313.084 380.76 313.592 382.136C313.846 382.823 314.058 383.437 314.208 383.929C314.283 384.174 314.344 384.394 314.387 384.58C314.427 384.757 314.459 384.935 314.459 385.084C314.459 385.365 314.255 385.509 314.203 385.542C314.128 385.592 314.049 385.621 313.994 385.638C313.879 385.675 313.734 385.703 313.581 385.726C313.267 385.773 312.828 385.812 312.303 385.844C311.25 385.907 309.804 385.943 308.22 385.943H302.481H301.74L302.017 385.256L303.378 381.889M308.22 371.587C308.269 371.538 308.383 371.658 308.544 371.911C308.544 371.911 308.544 371.911 308.544 371.911C308.552 371.923 308.559 371.935 308.567 371.947C308.569 371.945 308.572 371.943 308.574 371.941C308.574 371.94 308.574 371.94 308.573 371.941C308.572 371.942 308.57 371.945 308.568 371.948C309.847 373.993 313.959 383.821 313.959 385.084C313.959 385.3 311.377 385.443 308.22 385.443H303.02L302.944 385.631L302.481 385.443V384.943H302.683L303.844 382.069M303.378 381.889C303.377 381.891 303.376 381.893 303.375 381.896L303.844 382.069M303.378 381.889L303.38 381.882L303.844 382.069" stroke="white"/>
</g>
<g filter="url(#filter5_d_257_1670)">
<path d="M387.134 399.444C387.134 398.797 387.779 398.367 388.855 398.367C389.788 398.367 391.295 397.72 392.227 397.003C393.949 395.638 393.949 395.351 394.163 381.279C394.45 364.12 394.523 364.192 387.563 364.838C384.048 365.125 382.901 365.628 381.61 367.136C380.676 368.141 379.96 369.936 379.96 371.156C379.96 372.52 379.6 373.238 378.884 373.238C378.022 373.238 377.807 372.09 377.807 367.495V361.751H397.895H417.982V367.495C417.982 372.09 417.766 373.238 416.906 373.238C416.331 373.238 415.828 372.736 415.828 372.09C415.828 371.444 415.327 369.864 414.681 368.5C413.461 365.915 410.593 364.623 406 364.623C401.338 364.623 401.481 364.049 401.481 380.202C401.481 388.89 401.768 395.423 402.199 396.285C402.701 397.074 404.064 397.792 405.785 398.079C407.507 398.367 408.655 398.941 408.655 399.515C408.655 400.305 406.503 400.52 397.895 400.52C388.783 400.52 387.134 400.377 387.134 399.444Z" fill="white"/>
<path d="M392.532 397.399L392.532 397.399C392.025 397.789 391.376 398.151 390.732 398.416C390.097 398.678 389.416 398.867 388.855 398.867C388.374 398.867 388.048 398.964 387.859 399.084C387.688 399.194 387.634 399.314 387.634 399.444C387.634 399.465 387.636 399.475 387.637 399.478C387.637 399.478 387.637 399.478 387.637 399.479C387.637 399.479 387.637 399.479 387.637 399.478C387.637 399.478 387.637 399.478 387.637 399.478C387.637 399.478 387.637 399.478 387.637 399.478C387.637 399.479 387.642 399.486 387.659 399.499C387.676 399.513 387.705 399.533 387.753 399.556C387.963 399.658 388.375 399.758 389.146 399.834C390.668 399.984 393.33 400.02 397.895 400.02C402.203 400.02 404.869 399.966 406.456 399.816C407.257 399.741 407.735 399.644 408.002 399.54C408.06 399.517 408.101 399.497 408.128 399.481C408.118 399.469 408.106 399.454 408.089 399.437C408.008 399.352 407.864 399.248 407.642 399.137C407.2 398.915 406.535 398.711 405.703 398.573L405.703 398.573C404.799 398.422 403.978 398.156 403.309 397.816C402.647 397.481 402.095 397.052 401.777 396.553L401.763 396.531L401.752 396.508C401.662 396.329 401.601 396.067 401.552 395.789C401.5 395.494 401.452 395.121 401.407 394.68C401.319 393.797 401.242 392.618 401.179 391.2C401.053 388.364 400.981 384.551 400.981 380.202C400.981 379.722 400.981 379.257 400.981 378.805C400.98 375.465 400.979 372.901 401.032 370.94C401.091 368.727 401.218 367.223 401.512 366.215C401.662 365.703 401.863 365.287 402.146 364.964C402.435 364.634 402.784 364.43 403.18 364.308C403.564 364.189 403.994 364.146 404.45 364.13C404.781 364.118 405.152 364.12 405.549 364.122C405.696 364.122 405.847 364.123 406 364.123C410.66 364.123 413.787 365.436 415.133 368.286C415.133 368.286 415.133 368.286 415.133 368.286L414.681 368.5C415.327 369.864 415.828 371.444 415.828 372.09C415.828 372.736 416.331 373.238 416.906 373.238C417.766 373.238 417.982 372.09 417.982 367.495L392.532 397.399ZM392.532 397.399L392.537 397.394C392.969 397.052 393.364 396.726 393.662 396.193C393.955 395.669 394.133 394.989 394.257 393.966C394.501 391.949 394.555 388.367 394.66 381.47L394.663 381.288L392.532 397.399ZM397.895 362.251H417.482L394.663 381.287C394.666 381.103 394.669 380.922 394.672 380.742C394.74 376.728 394.791 373.674 394.731 371.368C394.67 368.976 394.49 367.313 394.045 366.197C393.817 365.626 393.512 365.175 393.099 364.842C392.686 364.511 392.201 364.325 391.658 364.229C390.64 364.05 389.311 364.174 387.676 364.326C387.624 364.331 387.572 364.335 387.52 364.34C385.756 364.484 384.529 364.686 383.569 365.064C382.588 365.451 381.916 366.011 381.236 366.803C380.721 367.36 380.282 368.114 379.972 368.877C379.661 369.641 379.46 370.461 379.46 371.156C379.46 371.81 379.371 372.236 379.246 372.481C379.186 372.597 379.127 372.656 379.079 372.687C379.035 372.717 378.975 372.738 378.884 372.738C378.804 372.738 378.781 372.724 378.745 372.678C378.68 372.595 378.59 372.405 378.514 371.997C378.362 371.19 378.307 369.802 378.307 367.495V362.251H397.895ZM408.156 399.528C408.156 399.528 408.156 399.528 408.156 399.527L408.156 399.528Z" stroke="white"/>
</g>
<g filter="url(#filter6_d_257_1670)">
<path d="M336.916 343.515C323.716 340.644 312.596 326.572 312.524 312.787V309.341H320.344H328.092L328.594 313.003C329.598 320.326 334.692 327.505 339.642 328.438C344.161 329.3 348.968 328.367 351.837 326.069L354.563 323.915L360.374 328.654L366.257 333.392L363.674 336.049C360.087 339.71 353.847 342.869 348.394 343.731C342.798 344.664 342.009 344.664 336.916 343.515Z" fill="white"/>
<path d="M337.026 343.028L337.022 343.027C330.556 341.62 324.571 337.461 320.189 331.933C315.808 326.406 313.06 319.548 313.024 312.786V309.841H320.344H327.656L328.099 313.07C328.612 316.817 330.169 320.518 332.231 323.407C334.282 326.281 336.891 328.428 339.548 328.93C344.171 329.811 349.137 328.871 352.148 326.461C352.149 326.46 352.149 326.46 352.15 326.46L354.558 324.557L360.058 329.041L360.06 329.043L365.516 333.437L363.317 335.699C363.317 335.699 363.317 335.699 363.316 335.7C359.808 339.279 353.669 342.391 348.316 343.237L348.312 343.237C345.506 343.706 343.955 343.93 342.475 343.904C341 343.878 339.576 343.603 337.026 343.028Z" stroke="white"/>
</g>
<g filter="url(#filter7_d_257_1670)">
<path d="M312.524 305.177C312.524 295.054 321.061 282.202 330.818 277.608C341.22 272.797 355.065 274.808 363.028 282.274C364.464 283.638 365.611 285.074 365.611 285.433C365.611 285.792 363.028 288.233 359.944 290.818C354.276 295.556 354.276 295.556 352.913 294.12C350.761 291.679 347.533 290.459 343.372 290.387C335.768 290.315 331.105 295.269 328.737 305.966L328.307 307.905H320.416H312.524V305.177Z" fill="white"/>
<path d="M343.381 289.887L343.381 289.887L328.737 305.966L328.249 305.858L328.249 305.858C328.249 305.858 328.249 305.858 328.249 305.858L327.906 307.405H320.416H313.024V305.177C313.024 300.243 315.11 294.595 318.429 289.596C321.746 284.599 326.254 280.31 331.029 278.061C341.258 273.332 354.88 275.321 362.685 282.638C363.388 283.306 364.019 283.99 364.47 284.546C364.696 284.825 364.871 285.063 364.986 285.246C365.022 285.304 365.05 285.352 365.072 285.392C365.01 285.474 364.917 285.586 364.789 285.726C364.511 286.033 364.102 286.443 363.59 286.928C362.568 287.898 361.159 289.147 359.623 290.435C358.204 291.621 357.148 292.504 356.337 293.142C355.518 293.786 354.984 294.153 354.602 294.332C354.242 294.501 354.099 294.468 353.997 294.422C353.827 294.344 353.645 294.165 353.282 293.783C351.009 291.209 347.629 289.961 343.381 289.887ZM365.137 285.296C365.136 285.296 365.136 285.297 365.135 285.298C365.139 285.289 365.14 285.288 365.137 285.296Z" stroke="white"/>
</g>
<g filter="url(#filter8_d_257_1670)">
<path d="M165.683 289.373C121.152 209.388 209.388 121.152 289.373 165.683C319.295 182.342 355.705 182.342 385.627 165.683C465.612 121.152 553.848 209.388 509.317 289.373C492.658 319.295 492.658 355.705 509.317 385.627C553.848 465.612 465.612 553.848 385.627 509.317C355.705 492.658 319.295 492.658 289.373 509.317C209.388 553.848 121.152 465.612 165.683 385.627C182.342 355.705 182.342 319.295 165.683 289.373Z" stroke="#E2AF55" stroke-width="8"/>
</g>
<defs>
<filter id="filter0_d_257_1670" x="188" y="336.464" width="86.394" height="89.4181" filterUnits="userSpaceOnUse" color-interpolation-filters="sRGB">
<feFlood flood-opacity="0" result="BackgroundImageFix"/>
<feColorMatrix in="SourceAlpha" type="matrix" values="0 0 0 0 0 0 0 0 0 0 0 0 0 0 0 0 0 0 127 0" result="hardAlpha"/>
<feOffset/>
<feGaussianBlur stdDeviation="12.5"/>
<feComposite in2="hardAlpha" operator="out"/>
<feColorMatrix type="matrix" values="0 0 0 0 1 0 0 0 0 1 0 0 0 0 1 0 0 0 1 0"/>
<feBlend mode="normal" in2="BackgroundImageFix" result="effect1_dropShadow_257_1670"/>
<feBlend mode="normal" in="SourceGraphic" in2="effect1_dropShadow_257_1670" result="shape"/>
</filter>
<filter id="filter1_d_257_1670" x="307.003" y="336.354" width="92.8066" height="89.5365" filterUnits="userSpaceOnUse" color-interpolation-filters="sRGB">
<feFlood flood-opacity="0" result="BackgroundImageFix"/>
<feColorMatrix in="SourceAlpha" type="matrix" values="0 0 0 0 0 0 0 0 0 0 0 0 0 0 0 0 0 0 127 0" result="hardAlpha"/>
<feOffset/>
<feGaussianBlur stdDeviation="12.5"/>
<feComposite in2="hardAlpha" operator="out"/>
<feColorMatrix type="matrix" values="0 0 0 0 1 0 0 0 0 1 0 0 0 0 1 0 0 0 1 0"/>
<feBlend mode="normal" in2="BackgroundImageFix" result="effect1_dropShadow_257_1670"/>
<feBlend mode="normal" in="SourceGraphic" in2="effect1_dropShadow_257_1670" result="shape"/>
</filter>
<filter id="filter2_d_257_1670" x="396.209" y="336.536" width="92.5923" height="89.3536" filterUnits="userSpaceOnUse" color-interpolation-filters="sRGB">
<feFlood flood-opacity="0" result="BackgroundImageFix"/>
<feColorMatrix in="SourceAlpha" type="matrix" values="0 0 0 0 0 0 0 0 0 0 0 0 0 0 0 0 0 0 127 0" result="hardAlpha"/>
<feOffset/>
<feGaussianBlur stdDeviation="12.5"/>
<feComposite in2="hardAlpha" operator="out"/>
<feColorMatrix type="matrix" values="0 0 0 0 1 0 0 0 0 1 0 0 0 0 1 0 0 0 1 0"/>
<feBlend mode="normal" in2="BackgroundImageFix" result="effect1_dropShadow_257_1670"/>
<feBlend mode="normal" in="SourceGraphic" in2="effect1_dropShadow_257_1670" result="shape"/>
</filter>
<filter id="filter3_d_257_1670" x="228.698" y="336.845" width="85.7856" height="88.6748" filterUnits="userSpaceOnUse" color-interpolation-filters="sRGB">
<feFlood flood-opacity="0" result="BackgroundImageFix"/>
<feColorMatrix in="SourceAlpha" type="matrix" values="0 0 0 0 0 0 0 0 0 0 0 0 0 0 0 0 0 0 127 0" result="hardAlpha"/>
<feOffset/>
<feGaussianBlur stdDeviation="12.5"/>
<feComposite in2="hardAlpha" operator="out"/>
<feColorMatrix type="matrix" values="0 0 0 0 1 0 0 0 0 1 0 0 0 0 1 0 0 0 1 0"/>
<feBlend mode="normal" in2="BackgroundImageFix" result="effect1_dropShadow_257_1670"/>
<feBlend mode="normal" in="SourceGraphic" in2="effect1_dropShadow_257_1670" result="shape"/>
</filter>
<filter id="filter4_d_257_1670" x="264.568" y="336.033" width="93.0435" height="89.4872" filterUnits="userSpaceOnUse" color-interpolation-filters="sRGB">
<feFlood flood-opacity="0" result="BackgroundImageFix"/>
<feColorMatrix in="SourceAlpha" type="matrix" values="0 0 0 0 0 0 0 0 0 0 0 0 0 0 0 0 0 0 127 0" result="hardAlpha"/>
<feOffset/>
<feGaussianBlur stdDeviation="12.5"/>
<feComposite in2="hardAlpha" operator="out"/>
<feColorMatrix type="matrix" values="0 0 0 0 1 0 0 0 0 1 0 0 0 0 1 0 0 0 1 0"/>
<feBlend mode="normal" in2="BackgroundImageFix" result="effect1_dropShadow_257_1670"/>
<feBlend mode="normal" in="SourceGraphic" in2="effect1_dropShadow_257_1670" result="shape"/>
</filter>
<filter id="filter5_d_257_1670" x="352.807" y="336.751" width="90.1753" height="88.7692" filterUnits="userSpaceOnUse" color-interpolation-filters="sRGB">
<feFlood flood-opacity="0" result="BackgroundImageFix"/>
<feColorMatrix in="SourceAlpha" type="matrix" values="0 0 0 0 0 0 0 0 0 0 0 0 0 0 0 0 0 0 127 0" result="hardAlpha"/>
<feOffset/>
<feGaussianBlur stdDeviation="12.5"/>
<feComposite in2="hardAlpha" operator="out"/>
<feColorMatrix type="matrix" values="0 0 0 0 1 0 0 0 0 1 0 0 0 0 1 0 0 0 1 0"/>
<feBlend mode="normal" in2="BackgroundImageFix" result="effect1_dropShadow_257_1670"/>
<feBlend mode="normal" in="SourceGraphic" in2="effect1_dropShadow_257_1670" result="shape"/>
</filter>
<filter id="filter6_d_257_1670" x="287.524" y="284.341" width="103.733" height="85.0649" filterUnits="userSpaceOnUse" color-interpolation-filters="sRGB">
<feFlood flood-opacity="0" result="BackgroundImageFix"/>
<feColorMatrix in="SourceAlpha" type="matrix" values="0 0 0 0 0 0 0 0 0 0 0 0 0 0 0 0 0 0 127 0" result="hardAlpha"/>
<feOffset/>
<feGaussianBlur stdDeviation="12.5"/>
<feComposite in2="hardAlpha" operator="out"/>
<feColorMatrix type="matrix" values="0 0 0 0 1 0 0 0 0 1 0 0 0 0 1 0 0 0 1 0"/>
<feBlend mode="normal" in2="BackgroundImageFix" result="effect1_dropShadow_257_1670"/>
<feBlend mode="normal" in="SourceGraphic" in2="effect1_dropShadow_257_1670" result="shape"/>
</filter>
<filter id="filter7_d_257_1670" x="287.524" y="250" width="103.086" height="82.905" filterUnits="userSpaceOnUse" color-interpolation-filters="sRGB">
<feFlood flood-opacity="0" result="BackgroundImageFix"/>
<feColorMatrix in="SourceAlpha" type="matrix" values="0 0 0 0 0 0 0 0 0 0 0 0 0 0 0 0 0 0 127 0" result="hardAlpha"/>
<feOffset/>
<feGaussianBlur stdDeviation="12.5"/>
<feComposite in2="hardAlpha" operator="out"/>
<feColorMatrix type="matrix" values="0 0 0 0 1 0 0 0 0 1 0 0 0 0 1 0 0 0 1 0"/>
<feBlend mode="normal" in2="BackgroundImageFix" result="effect1_dropShadow_257_1670"/>
<feBlend mode="normal" in="SourceGraphic" in2="effect1_dropShadow_257_1670" result="shape"/>
</filter>
<filter id="filter8_d_257_1670" x="124.685" y="124.685" width="425.63" height="425.629" filterUnits="userSpaceOnUse" color-interpolation-filters="sRGB">
<feFlood flood-opacity="0" result="BackgroundImageFix"/>
<feColorMatrix in="SourceAlpha" type="matrix" values="0 0 0 0 0 0 0 0 0 0 0 0 0 0 0 0 0 0 127 0" result="hardAlpha"/>
<feOffset/>
<feGaussianBlur stdDeviation="12.5"/>
<feColorMatrix type="matrix" values="0 0 0 0 0.886275 0 0 0 0 0.686275 0 0 0 0 0.333333 0 0 0 1 0"/>
<feBlend mode="normal" in2="BackgroundImageFix" result="effect1_dropShadow_257_1670"/>
<feBlend mode="normal" in="SourceGraphic" in2="effect1_dropShadow_257_1670" result="shape"/>
</filter>
</defs>
</svg>
