<?xml version="1.0" encoding="utf-8"?>
<svg viewBox="0 0 500 500" xmlns="http://www.w3.org/2000/svg"
  xmlns:xlink="http://www.w3.org/1999/xlink" xmlns:bx="https://boxy-svg.com">
  <defs>
    <linearGradient id="gradient-3" bx:pinned="true">
      <stop offset="0" style="stop-color: rgb(138, 0, 148);" />
      <stop offset="1" style="stop-color: rgb(213, 22, 100);" />
    </linearGradient>
    <linearGradient id="gradient-3-0" gradientUnits="userSpaceOnUse" x1="119.541" y1="50.841"
      x2="119.541" y2="299.417"
      gradientTransform="matrix(-0.030551, -0.999533, 1.401514, 0.004072, 48.489384, 292.805576)"
      xlink:href="#gradient-3" />
    <linearGradient id="gradient-3-1" gradientUnits="userSpaceOnUse" x1="293.248" y1="-0.02"
      x2="293.248" y2="348.07"
      gradientTransform="matrix(-0.004396, -0.99999, 1.000841, 0.00557, 117.400823, 466.300824)"
      xlink:href="#gradient-3" />
    <linearGradient id="gradient-3-2" gradientUnits="userSpaceOnUse" x1="464.214" y1="50.625"
      x2="464.214" y2="299.331"
      gradientTransform="matrix(0.004093, -0.999992, 1.400781, 0.004593, 43.276887, 636.193628)"
      xlink:href="#gradient-3" />
  </defs>
  <g id="Camada_2" data-name="Camada 2"
    transform="matrix(0.861122, 0, 0, 0.861122, 0.030896, 0.016819)" style="">
    <g id="Camada_1-2" data-name="Camada 1">
      <path
        d="M244.4,348.07c-16.53-.95-31.61-16.12-26.18-34.13,4-13.24,8.45-26.35,12.82-39.48,6.54-19.63,13.18-39.22,19.77-58.83q10.38-30.85,20.73-61.7,11.64-34.74,23.24-69.5c7.43-22.24,14.76-44.51,22.34-66.69A25.49,25.49,0,0,1,343.77.09c13.3,1.07,23.08,9.56,25.32,22.11.9,5.06-.27,10-1.85,14.7q-10.44,31.43-21,62.8-11.4,34-22.78,68.09-13.17,39.36-26.34,78.74c-7.23,21.64-14.25,43.35-21.75,64.89-2.93,8.42-4.31,17.59-10.14,24.8C259.52,343.27,252.37,347.91,244.4,348.07Z"
        style="fill: url(#gradient-3-1);" />
      <path
        d="M169.14,50.9c11-.83,20.3,7.31,23.81,15.33,4.55,10.36,2.32,21.24-6,29.56q-30.57,30.61-61.22,61.15c-4.94,4.94-9.9,9.87-14.83,14.83-3.28,3.31-3.22,3.37.22,6.78q37.77,37.42,75.49,74.88c6.93,6.88,10,15.16,7.92,24.89-1.89,8.93-7.26,15.49-15.55,18.85-9.25,3.75-18.62,3-26.44-3.72C141.48,284,131.73,273,121.3,262.85,108.53,250.38,96,237.64,83.42,225c-10.49-10.5-21.06-20.91-31.48-31.49-11.43-11.61-10.61-27.46,1.26-38.76,11-10.49,21.49-21.53,32.24-32.3q15.59-15.6,31.25-31.15c11-10.88,22.14-21.62,33-32.6A25.21,25.21,0,0,1,169.14,50.9Z"
        style="fill: url(#gradient-3-0);" />
      <path
        d="M418.48,50.67c6-.59,12.72,4.72,19,10.94q26.37,26.31,52.73,52.65Q512,136.09,533.81,158c7.14,7.16,8.12,22,2,31a40.23,40.23,0,0,1-5,6.05q-31.75,31.51-63.59,63-16.75,16.61-33.37,33.34c-8.73,8.78-23.25,10.56-32.64,3.93-11.91-8.41-15.8-21.51-9.93-33.78,2.26-4.71,6.23-8.07,9.85-11.68q36.45-36.33,73-72.6c1.91-1.88,1.84-3.09,0-4.88q-38.82-38.43-77.57-76.93c-7.82-7.78-10.09-18.83-5.75-28.6C395.4,56.43,403.54,51.17,418.48,50.67Z"
        style="fill: url(#gradient-3-2);" />
      <path
        d="M308.58,495.59q0-37.8,0-75.62c0-6,.29-5.89,6.34-6.47A546.84,546.84,0,0,1,374,411.28c13.18.14,25.47,3.38,36.35,11,10.56,7.36,16,18.21,19.77,30.09,2.9,9.1,3.77,18.48,4.67,28,1.21,12.76.43,25.43-1.06,38-2.47,20.89-9.7,39.5-28.39,51.6-10.67,6.9-22.62,9.75-35.17,10.22-19.11.72-38.13-1.22-57.18-2.26-4-.22-4.44-2.68-4.43-5.9Q308.63,533.77,308.58,495.59Zm39,0c0,15.22.05,30.45,0,45.67,0,2.88.74,4.15,3.93,4.45a132.7,132.7,0,0,0,19.83.36c8.76-.5,15.09-4.43,17.93-13.25,2.62-8.16,3.28-16.56,4.05-25a153.75,153.75,0,0,0-2.77-47.18c-2.58-11.76-8.23-15.95-20.37-16.06-6.14-.06-12.19.93-18.28,1.26-3.6.2-4.35,1.64-4.33,4.83C347.61,465.6,347.55,480.57,347.55,495.55Z"
        style="fill: rgb(255, 255, 255);" />
      <path
        d="M212.67,411.34a71.61,71.61,0,0,1,32.72,5.32c13.39,5.64,22.58,15.5,28,28.68,8.16,19.83,8.86,40.69,7.82,61.77a130.59,130.59,0,0,1-4.8,30.2c-6.34,21.85-20.75,35.16-42.7,40.7a95.45,95.45,0,0,1-34.63,1.79c-24.14-2.84-44-14.53-52.15-41A124.71,124.71,0,0,1,141.72,506a225.66,225.66,0,0,1,.88-33.2c1.53-13.1,4.72-25.74,12.13-37,7.56-11.48,18.18-18.54,31.31-22.22C194.46,411.26,203,411.14,212.67,411.34Zm28.24,83.43a105.29,105.29,0,0,0-3.1-29.91c-2.15-8.73-5.71-16.34-15.88-18.14a57.19,57.19,0,0,0-20.46-.08c-5,.92-9.48,3.26-12.19,7.91A38.83,38.83,0,0,0,185.4,463c-2.12,7.1-2.61,14.43-3.18,21.73a132.29,132.29,0,0,0,3.42,43.4c1.81,7.05,5.3,13.27,13.08,15.51a33.07,33.07,0,0,0,7.31,1.49c18.84,1,27.82-2.76,32-20.64A113,113,0,0,0,240.91,494.77Z"
        style="fill: rgb(255, 255, 255);" />
      <path
        d="M41.57,495.94c-.14,11.61,0,23.09,3.6,34.42s8.81,16,20.76,15.92c12.85,0,24.75-4.27,36.67-8.37,3-1,5.85-2.15,8.8-3.18,2.14-.74,3.51-.06,4.34,2.18,2.8,7.6,5.7,15.16,8.61,22.72,1.09,2.85.68,4.94-2.24,6.56C110.49,572.59,97.9,576,85,578.76c-7.07,1.54-14.11,1.37-21.2,1.38-16.69,0-31.5-5.17-43.57-16.83-8.68-8.38-13.45-19.1-16.34-30.65-4-16.15-4.46-32.63-3.5-49.09C1.18,470.76,3,458,7.88,445.94c7.85-19.64,22.7-30.76,43.22-33.71,15.6-2.24,31.39-1.43,47.05.63a157.91,157.91,0,0,1,17,2.86c2.78.68,4.08,2,3.68,5-1.14,8.4-2.18,16.81-3.29,25.21-.32,2.41-1.5,3.17-4.14,2.9-15.14-1.55-30.26-3.34-45.55-2.92-13.72.37-19,4.62-22,18.05C41.51,474.52,41.43,485.21,41.57,495.94Z"
        style="fill: rgb(255, 255, 255);" />
      <path
        d="M462.28,554.45c.87-25.19.89-50.39.51-75.57q-.45-29.75-.51-59.48c0-5.48.21-5.67,5.7-5.68,9.74,0,19.49.11,29.22-.06,3.56-.05,4.86,1.21,4.85,4.79,0,14.58-1,29.14-.88,43.73.25,24.95.12,49.91.05,74.86,0,11.6,1.27,23.15.81,34.76-.2,5-.35,5.29-5.35,5.3-10,0-20-.07-30,0-3.18,0-4.55-1.09-4.47-4.35C462.37,566.68,462.28,560.56,462.28,554.45Z"
        style="fill: rgb(255, 255, 255);" />
      <path
        d="M575.57,438.47c-1,24.19-1.31,48.4-.58,72.58.6,20.08.35,40.15.58,60.22.06,5.69-.13,5.83-5.92,5.83-9.75,0-19.49-.09-29.24,0-3.41.05-4.67-1.22-4.61-4.6.35-18.84.28-37.69.84-56.5.81-27.19-.53-54.32-.73-81.48,0-5.62,0-11.23,0-16.85,0-2.78,1.22-4,4.1-4q15.93.12,31.86,0c2.73,0,3.81,1.1,3.77,3.81C575.51,424.49,575.57,431.48,575.57,438.47Z"
        style="fill: rgb(255, 255, 255);" />
    </g>
  </g>
</svg>