<svg width="448" height="411" viewBox="0 0 448 411" fill="none" xmlns="http://www.w3.org/2000/svg">
    <g clip-path="url(#clip0_257_94)">
        <path
            d="M193.951 225.416C183.268 224.801 173.522 214.976 177.031 203.313C179.616 194.738 182.492 186.248 185.316 177.745C189.543 165.032 193.834 152.345 198.093 139.646C202.566 126.326 207.032 113.007 211.491 99.6877C216.506 84.6889 221.513 69.6857 226.51 54.6783C231.312 40.2753 236.05 25.8528 240.948 11.4887C242.088 7.90082 244.417 4.8111 247.55 2.73206C250.683 0.653013 254.431 -0.290415 258.172 0.0582624C266.767 0.751213 273.088 6.24948 274.536 14.3771C275.117 17.654 274.361 20.8532 273.34 23.897C268.842 37.4668 264.318 51.0236 259.768 64.5674C254.856 79.2467 249.949 93.9455 245.046 108.664C239.372 125.657 233.697 142.655 228.023 159.657C223.35 173.671 218.813 187.731 213.966 201.681C212.073 207.134 211.181 213.072 207.413 217.742C203.723 222.307 199.102 225.312 193.951 225.416Z"
            fill="url(#paint0_linear_257_94)" />
        <path
            d="M145.312 32.9637C152.421 32.4262 158.431 37.6978 160.7 42.8917C163.64 49.601 162.199 56.647 156.822 62.0352C143.651 75.2509 130.462 88.4515 117.257 101.637C114.064 104.836 110.858 108.029 107.672 111.241C105.552 113.385 105.591 113.424 107.814 115.632C124.088 131.788 140.35 147.952 156.602 164.126C161.081 168.581 163.065 173.943 161.721 180.245C160.499 186.028 157.029 190.276 151.671 192.452C145.693 194.881 139.637 194.395 134.583 190.043C127.435 183.923 121.134 176.799 114.394 170.226C106.14 162.15 98.0426 153.9 89.9123 145.714C83.1328 138.914 76.3016 132.172 69.5674 125.32C62.1804 117.802 62.7103 107.537 70.3817 100.219C77.4908 93.4252 84.2703 86.2755 91.2178 79.3007C97.9349 72.5655 104.667 65.841 111.414 59.1274C118.523 52.0813 125.723 45.1259 132.741 38.0151C134.353 36.3191 136.309 34.9902 138.478 34.1186C140.647 33.247 142.977 32.8531 145.312 32.9637Z"
            fill="url(#paint1_linear_257_94)" />
        <path
            d="M306.456 32.8147C310.333 32.4326 314.677 35.8715 318.735 39.8997C330.097 51.2589 341.456 62.6245 352.814 73.9967C362.202 83.4217 371.595 92.8639 380.992 102.323C385.606 106.96 386.239 116.571 382.284 122.4C381.337 123.808 380.255 125.12 379.053 126.318C365.373 139.922 351.674 153.522 337.956 167.118C330.739 174.289 323.55 181.486 316.389 188.709C310.747 194.395 301.363 195.548 295.294 191.254C287.597 185.808 285.083 177.324 288.877 169.378C290.338 166.327 292.903 164.151 295.243 161.814C310.947 146.128 326.674 130.456 342.421 114.797C343.656 113.579 343.611 112.795 342.421 111.636C325.696 95.0442 308.985 78.4372 292.289 61.815C287.235 56.7766 285.768 49.6204 288.573 43.2932C291.54 36.545 296.8 33.1385 306.456 32.8147Z"
            fill="url(#paint2_linear_257_94)" />
        <g filter="url(#filter0_d_257_94)">
            <path
                d="M235.43 320.953C235.43 304.633 235.43 288.308 235.43 271.98C235.43 268.094 235.617 268.165 239.527 267.79C252.219 266.621 264.965 266.141 277.709 266.352C286.227 266.443 294.17 268.541 301.202 273.476C308.026 278.242 311.542 285.269 313.979 292.962C315.853 298.856 316.415 304.93 316.997 311.096C317.779 319.359 317.275 327.565 316.312 335.705C314.715 349.234 310.043 361.286 297.964 369.122C291.068 373.591 283.345 375.437 275.234 375.741C262.884 376.207 250.591 374.951 238.28 374.277C235.695 374.135 235.41 372.542 235.417 370.456C235.447 353.938 235.451 337.437 235.43 320.953ZM260.635 320.953C260.635 330.809 260.667 340.672 260.635 350.529C260.635 352.394 261.113 353.217 263.174 353.411C267.435 353.809 271.718 353.887 275.99 353.644C281.652 353.32 285.743 350.775 287.578 345.063C289.271 339.779 289.698 334.339 290.195 328.873C291.174 318.656 290.57 308.35 288.405 298.318C286.738 290.702 283.086 287.989 275.241 287.918C271.272 287.879 267.362 288.52 263.426 288.734C261.1 288.863 260.615 289.796 260.628 291.862C260.654 301.53 260.615 311.225 260.615 320.927L260.635 320.953Z"
                fill="white" />
            <path
                d="M260.135 350.529V350.528C260.156 343.957 260.149 337.385 260.142 330.812C260.138 327.581 260.135 324.35 260.135 321.119L260.115 321.093V320.927C260.115 317.285 260.121 313.645 260.126 310.007C260.135 303.952 260.144 297.904 260.128 291.864M260.135 350.529L260.628 291.862M260.135 350.529C260.135 351.477 260.249 352.306 260.744 352.913C261.249 353.533 262.054 353.808 263.128 353.909L263.128 353.909C267.413 354.309 271.722 354.388 276.019 354.143L276.019 354.143C278.916 353.978 281.452 353.241 283.508 351.782C285.569 350.32 287.108 348.159 288.054 345.216L288.054 345.216C289.679 340.146 290.149 334.94 290.616 329.768C290.642 329.485 290.668 329.202 290.693 328.919M260.135 350.529L290.195 328.873M260.128 291.864C260.128 291.864 260.128 291.863 260.128 291.863L260.628 291.862M260.128 291.864C260.128 291.864 260.128 291.864 260.128 291.865L260.628 291.862M260.128 291.864C260.122 290.824 260.231 289.912 260.761 289.257C261.307 288.582 262.192 288.302 263.399 288.234L263.399 288.234C264.905 288.153 266.404 288.008 267.916 287.862C268.368 287.819 268.821 287.775 269.275 287.733C271.244 287.551 273.234 287.398 275.245 287.418M260.628 291.862C260.615 289.796 261.1 288.863 263.426 288.734C264.943 288.651 266.456 288.505 267.97 288.359C270.385 288.127 272.802 287.894 275.241 287.918M275.245 287.418L275.241 287.918M275.245 287.418C275.245 287.418 275.245 287.418 275.245 287.418L275.241 287.918M275.245 287.418C279.214 287.454 282.219 288.157 284.447 289.894C286.68 291.635 288.048 294.348 288.894 298.211L288.894 298.213C291.069 308.294 291.676 318.652 290.693 328.919M275.241 287.918C283.086 287.989 286.738 290.702 288.405 298.318C290.57 308.35 291.174 318.656 290.195 328.873M290.195 328.873L290.693 328.921C290.693 328.92 290.693 328.92 290.693 328.919M290.195 328.873C290.17 329.151 290.145 329.43 290.12 329.708C289.651 334.893 289.185 340.048 287.578 345.063L290.195 328.873ZM290.195 328.873L290.693 328.918C290.693 328.919 290.693 328.919 290.693 328.919M277.701 266.852L277.704 266.852C286.14 266.942 293.98 269.018 300.914 273.885L300.915 273.886C307.608 278.56 311.079 285.462 313.502 293.113L313.502 293.114C315.345 298.908 315.909 304.887 316.487 311.018L316.499 311.143L316.499 311.143C317.276 319.357 316.776 327.523 315.815 335.646L315.815 335.647C314.228 349.098 309.597 360.979 297.692 368.703C290.891 373.11 283.262 374.939 275.215 375.241L275.215 375.241C266.015 375.589 256.857 374.978 247.668 374.365C244.552 374.157 241.433 373.949 238.307 373.778C237.125 373.713 236.592 373.331 236.309 372.844C235.991 372.298 235.913 371.507 235.917 370.458L235.917 370.457C235.947 353.938 235.951 337.437 235.93 320.952V320.857V320.761V320.666V320.57V320.474V320.379V320.283V320.188V320.092V319.996V319.901V319.805V319.709V319.614V319.518V319.423V319.327V319.231V319.136V319.04V318.944V318.849V318.753V318.657V318.562V318.466V318.371V318.275V318.179V318.084V317.988V317.892V317.797V317.701V317.606V317.51V317.414V317.319V317.223V317.127V317.032V316.936V316.841V316.745V316.649V316.554V316.458V316.362V316.267V316.171V316.076V315.98V315.884V315.789V315.693V315.597V315.502V315.406V315.31V315.215V315.119V315.024V314.928V314.832V314.737V314.641V314.545V314.45V314.354V314.259V314.163V314.067V313.972V313.876V313.78V313.685V313.589V313.493V313.398V313.302V313.207V313.111V313.015V312.92V312.824V312.728V312.633V312.537V312.442V312.346V312.25V312.155V312.059V311.963V311.868V311.772V311.676V311.581V311.485V311.39V311.294V311.198V311.103V311.007V310.911V310.816V310.72V310.624V310.529V310.433V310.338V310.242V310.146V310.051V309.955V309.859V309.764V309.668V309.572V309.477V309.381V309.286V309.19V309.094V308.999V308.903V308.807V308.712V308.616V308.52V308.425V308.329V308.234V308.138V308.042V307.947V307.851V307.755V307.66V307.564V307.468V307.373V307.277V307.182V307.086V306.99V306.895V306.799V306.703V306.608V306.512V306.416V306.321V306.225V306.129V306.034V305.938V305.843V305.747V305.651V305.556V305.46V305.364V305.269V305.173V305.077V304.982V304.886V304.791V304.695V304.599V304.504V304.408V304.312V304.217V304.121V304.025V303.93V303.834V303.738V303.643V303.547V303.452V303.356V303.26V303.165V303.069V302.973V302.878V302.782V302.686V302.591V302.495V302.399V302.304V302.208V302.113V302.017V301.921V301.826V301.73V301.634V301.539V301.443V301.347V301.252V301.156V301.06V300.965V300.869V300.773V300.678V300.582V300.487V300.391V300.295V300.2V300.104V300.008V299.913V299.817V299.721V299.626V299.53V299.434V299.339V299.243V299.148V299.052V298.956V298.861V298.765V298.669V298.574V298.478V298.382V298.287V298.191V298.095V298V297.904V297.808V297.713V297.617V297.521V297.426V297.33V297.235V297.139V297.043V296.948V296.852V296.756V296.661V296.565V296.469V296.374V296.278V296.182V296.087V295.991V295.895V295.8V295.704V295.608V295.513V295.417V295.322V295.226V295.13V295.035V294.939V294.843V294.748V294.652V294.556V294.461V294.365V294.269V294.174V294.078V293.982V293.887V293.791V293.695V293.6V293.504V293.408V293.313V293.217V293.122V293.026V292.93V292.835V292.739V292.643V292.548V292.452V292.356V292.261V292.165V292.069V291.974V291.878V291.782V291.687V291.591V291.495V291.4V291.304V291.208V291.113V291.017V290.921V290.826V290.73V290.635V290.539V290.443V290.348V290.252V290.156V290.061V289.965V289.869V289.774V289.678V289.582V289.487V289.391V289.295V289.2V289.104V289.008V288.913V288.817V288.721V288.626V288.53V288.434V288.339V288.243V288.147V288.052V287.956V287.86V287.765V287.669V287.573V287.478V287.382V287.286V287.191V287.095V287V286.904V286.808V286.713V286.617V286.521V286.426V286.33V286.234V286.139V286.043V285.947V285.852V285.756V285.66V285.565V285.469V285.373V285.278V285.182V285.086V284.991V284.895V284.799V284.704V284.608V284.512V284.417V284.321V284.225V284.13V284.034V283.938V283.843V283.747V283.651V283.556V283.46V283.364V283.269V283.173V283.077V282.982V282.886V282.79V282.695V282.599V282.503V282.408V282.312V282.216V282.121V282.025V281.929V281.834V281.738V281.642V281.547V281.451V281.355V281.26V281.164V281.068V280.973V280.877V280.781V280.686V280.59V280.494V280.399V280.303V280.207V280.112V280.016V279.92V279.825V279.729V279.633V279.538V279.442V279.346V279.251V279.155V279.059V278.964V278.868V278.772V278.677V278.581V278.485V278.39V278.294V278.198V278.103V278.007V277.911V277.816V277.72V277.624V277.529V277.433V277.337V277.242V277.146V277.05V276.955V276.859V276.763V276.668V276.572V276.476V276.381V276.285V276.189V276.094V275.998V275.902V275.807V275.711V275.615V275.52V275.424V275.328V275.233V275.137V275.041V274.946V274.85V274.754V274.659V274.563V274.467V274.372V274.276V274.18V274.085V273.989V273.893V273.798V273.702V273.606V273.51V273.415V273.319V273.223V273.128V273.032V272.936V272.841V272.745V272.649V272.554V272.458V272.362V272.267V272.171V272.075V271.98C235.93 271.001 235.942 270.314 236.015 269.81C236.087 269.311 236.207 269.074 236.358 268.929C236.519 268.775 236.789 268.65 237.33 268.548C237.823 268.455 238.462 268.394 239.325 268.311C239.406 268.303 239.489 268.296 239.574 268.287C252.248 267.12 264.975 266.641 277.701 266.852Z"
                stroke="white" />
        </g>
        <g filter="url(#filter1_d_257_94)">
            <path
                d="M173.445 266.391C180.665 265.866 187.908 267.046 194.591 269.836C203.245 273.489 209.184 279.874 212.687 288.41C217.96 301.252 218.413 314.761 217.741 328.413C217.475 335.032 216.433 341.596 214.639 347.971C210.541 362.122 201.228 370.741 187.042 374.329C179.715 376.082 172.13 376.474 164.662 375.488C149.06 373.649 136.225 366.078 130.958 348.936C128.896 342.038 127.763 334.894 127.591 327.694C127.253 320.523 127.443 313.337 128.16 306.193C129.148 297.71 131.21 289.524 135.999 282.231C140.885 274.797 147.748 270.225 156.234 267.841C161.676 266.339 167.195 266.261 173.445 266.391ZM191.696 320.421C191.956 313.902 191.281 307.379 189.692 301.051C188.303 295.398 186.002 290.469 179.429 289.303C175.06 288.49 170.581 288.472 166.206 289.252C162.975 289.847 160.079 291.363 158.328 294.374C157.276 296.091 156.435 297.928 155.82 299.847C154.45 304.445 154.134 309.192 153.765 313.919C152.948 323.346 153.695 332.844 155.976 342.026C157.145 346.592 159.401 350.62 164.429 352.071C165.962 352.57 167.547 352.893 169.153 353.035C181.329 353.683 187.133 351.248 189.834 339.669C191.302 333.364 191.927 326.891 191.696 320.421Z"
                fill="white" />
            <path
                d="M173.434 266.891L173.458 266.891L173.481 266.889C180.623 266.37 187.787 267.538 194.398 270.297C202.92 273.895 208.768 280.177 212.224 288.6L212.224 288.6C217.455 301.338 217.912 314.757 217.241 328.388L217.241 328.393C216.977 334.972 215.942 341.497 214.158 347.834C210.112 361.805 200.942 370.297 186.923 373.844C179.656 375.581 172.134 375.971 164.727 374.993L164.72 374.992C156.981 374.079 149.96 371.749 144.23 367.548C138.506 363.351 134.041 357.266 131.436 348.791C129.387 341.936 128.262 334.836 128.091 327.682L128.091 327.682L128.09 327.671C127.754 320.525 127.943 313.365 128.657 306.247C129.641 297.805 131.688 289.706 136.417 282.506C141.228 275.185 147.984 270.678 156.368 268.323C161.733 266.842 167.187 266.761 173.434 266.891ZM166.118 288.759L166.116 288.76C162.789 289.373 159.745 290.948 157.899 294.118C156.828 295.868 155.97 297.74 155.344 299.694L155.344 299.694L155.341 299.704C154.021 304.136 153.668 308.699 153.32 313.19C153.303 313.42 153.285 313.649 153.267 313.879C152.445 323.36 153.197 332.911 155.49 342.147L155.491 342.15C156.679 346.787 159.011 351.024 164.282 352.549C165.849 353.058 167.468 353.388 169.109 353.534L169.118 353.534L169.127 353.535C175.228 353.859 179.855 353.424 183.303 351.367C186.779 349.293 188.956 345.636 190.321 339.782L190.321 339.782C191.797 333.44 192.428 326.93 192.196 320.423C192.456 313.862 191.776 307.298 190.177 300.931C189.478 298.084 188.536 295.36 186.904 293.193C185.258 291.009 182.929 289.417 179.519 288.812C175.091 287.987 170.552 287.97 166.118 288.759Z"
                stroke="white" />
        </g>
        <g filter="url(#filter2_d_257_94)">
            <path
                d="M62.8657 321.179C62.7752 328.698 62.8657 336.133 65.1923 343.47C67.5189 350.808 70.8861 353.832 78.6091 353.78C86.9139 353.78 94.6046 351.015 102.308 348.36C104.247 347.712 106.089 346.967 107.996 346.3C109.379 345.821 110.264 346.261 110.8 347.712C112.61 352.634 114.484 357.53 116.365 362.426C117.069 364.272 116.804 365.625 114.917 366.674C107.407 370.819 99.2708 373.027 90.9337 374.815C86.3645 375.812 81.8147 375.702 77.2326 375.709C66.4461 375.709 56.8747 372.36 49.074 364.809C43.4643 359.382 40.3815 352.44 38.5138 344.96C35.9287 334.501 35.6314 323.828 36.2518 313.168C36.7624 304.872 37.9386 296.609 41.0925 288.798C46.1658 276.079 55.7631 268.878 69.0248 266.967C79.1068 265.516 89.3116 266.041 99.4324 267.375C103.126 267.792 106.793 268.41 110.419 269.227C112.216 269.668 113.056 270.523 112.797 272.465C112.061 277.905 111.389 283.352 110.671 288.792C110.464 290.353 109.702 290.845 107.996 290.67C98.2109 289.666 88.4391 288.507 78.5574 288.779C69.6904 289.019 66.2781 291.771 64.3392 300.468C62.8269 307.307 62.7752 314.23 62.8657 321.179Z"
                fill="white" />
            <path
                d="M77.2326 375.709C66.4461 375.709 56.8747 372.36 49.074 364.809M77.2326 375.709C77.669 375.708 78.1052 375.708 78.5411 375.709C82.6816 375.713 86.7997 375.717 90.9337 374.815C99.2708 373.027 107.407 370.819 114.917 366.674M77.2326 375.709L77.2318 375.209M77.2326 375.709V375.209H77.2318M49.074 364.809L114.917 366.674M49.074 364.809C43.4643 359.382 40.3815 352.44 38.5138 344.96M49.074 364.809L38.5138 344.96M114.917 366.674L114.676 366.237C114.675 366.237 114.675 366.237 114.675 366.237C114.675 366.237 114.675 366.237 114.674 366.237L114.917 366.674ZM77.2318 375.209C66.5581 375.208 57.1172 371.899 49.4218 364.45L49.4217 364.45C43.9029 359.111 40.8537 352.266 38.999 344.839M77.2318 375.209L105.736 347.658C106.551 347.354 107.36 347.052 108.159 346.773M38.999 344.839C36.4308 334.448 36.1321 323.831 36.7509 313.198C37.2601 304.926 38.4314 296.724 41.5561 288.986L41.5569 288.984C46.5615 276.437 56.0046 269.348 69.0961 267.462M38.999 344.839C38.999 344.839 38.9991 344.839 38.9992 344.84L38.5138 344.96M38.999 344.839C38.999 344.839 38.9989 344.839 38.9989 344.839L38.5138 344.96M69.0961 267.462C79.1156 266.02 89.2703 266.54 99.367 267.871L99.367 267.871L99.3763 267.872C103.05 268.286 106.698 268.901 110.305 269.714C111.159 269.924 111.687 270.211 111.986 270.592C112.275 270.959 112.421 271.504 112.302 272.398C111.87 275.592 111.459 278.791 111.048 281.988C110.76 284.236 110.471 286.483 110.176 288.726C110.08 289.446 109.873 289.79 109.612 289.97C109.333 290.162 108.867 290.257 108.047 290.173C107.088 290.074 106.128 289.974 105.168 289.874C96.3487 288.955 87.4917 288.033 78.5437 288.279C74.0756 288.4 70.8675 289.153 68.5334 291.065C66.1987 292.978 64.8285 295.975 63.8512 300.36L63.851 300.36C62.3254 307.259 62.2753 314.232 62.3657 321.179C62.2753 328.695 62.3629 336.201 64.7157 343.621C65.8908 347.327 67.3535 350.03 69.566 351.788C71.7867 353.552 74.6881 354.306 78.6114 354.28C78.6117 354.28 78.6121 354.28 78.6125 354.28L78.6091 353.78M69.0961 267.462L69.0248 266.967M69.0961 267.462L69.0248 266.967M78.6091 353.78C86.6061 353.78 94.0337 351.216 101.452 348.655C101.737 348.557 102.023 348.458 102.308 348.36M78.6091 353.78C70.8861 353.832 67.5189 350.808 65.1923 343.47C62.8657 336.133 62.7752 328.698 62.8657 321.179L78.6091 353.78ZM102.308 348.36L102.467 348.834C102.467 348.834 102.468 348.833 102.469 348.833C102.47 348.833 102.47 348.833 102.471 348.832L102.308 348.36ZM102.308 348.36C103.408 347.992 104.476 347.594 105.542 347.196C106.356 346.893 107.17 346.589 107.996 346.3M107.996 346.3L108.159 346.773C108.159 346.773 108.159 346.773 108.159 346.773M107.996 346.3C109.379 345.821 110.264 346.261 110.8 347.712L108.159 346.773M107.996 346.3L108.161 346.772C108.16 346.772 108.16 346.772 108.159 346.773M69.0248 266.967C79.1068 265.516 89.3116 266.041 99.4324 267.375L69.0248 266.967ZM115.898 362.605L116.365 362.426L115.898 362.604C115.898 362.605 115.898 362.605 115.898 362.605Z"
                stroke="white" />
        </g>
        <g filter="url(#filter3_d_257_94)">
            <path
                d="M334.763 359.071C335.325 342.758 335.338 326.438 335.093 310.131C334.899 297.286 334.789 284.446 334.763 271.611C334.763 268.062 334.899 267.939 338.447 267.932C344.742 267.932 351.043 268.003 357.331 267.893C359.632 267.861 360.472 268.677 360.466 270.995C360.466 280.438 359.82 289.867 359.897 299.316C360.059 315.474 359.975 331.638 359.929 347.796C359.929 355.309 360.75 362.789 360.453 370.307C360.324 373.545 360.227 373.733 356.995 373.74C350.532 373.74 344.07 373.694 337.607 373.74C335.552 373.74 334.666 373.034 334.718 370.923C334.821 366.992 334.763 363.028 334.763 359.071Z"
                fill="white" />
            <path
                d="M359.966 270.995V270.994C359.969 269.871 359.761 269.263 359.413 268.919C359.064 268.575 358.454 268.378 357.339 268.393C352.819 268.472 348.29 268.458 343.768 268.443C341.993 268.438 340.219 268.432 338.447 268.432C337.553 268.434 336.913 268.443 336.44 268.506C335.967 268.569 335.75 268.675 335.627 268.797C335.505 268.919 335.398 269.134 335.335 269.606C335.273 270.077 335.263 270.715 335.263 271.61C335.289 284.443 335.399 297.281 335.593 310.123L335.093 310.131L335.593 310.123C335.838 326.432 335.826 342.758 335.263 359.08C335.263 360.12 335.267 361.163 335.271 362.206C335.283 365.118 335.294 368.037 335.218 370.935C335.193 371.937 335.397 372.462 335.713 372.757C336.041 373.063 336.612 373.24 337.606 373.24C341.916 373.21 346.228 373.22 350.537 373.23C352.69 373.235 354.843 373.24 356.994 373.24C357.808 373.238 358.384 373.224 358.807 373.161C359.228 373.099 359.42 372.998 359.531 372.885C359.645 372.768 359.747 372.564 359.819 372.128C359.891 371.691 359.921 371.105 359.953 370.288C359.953 370.288 359.953 370.287 359.953 370.287M359.966 270.995L359.929 347.796C359.929 350.977 360.077 354.152 360.224 357.326C360.424 361.649 360.624 365.972 360.453 370.307L359.953 370.287M359.966 270.995C359.966 275.44 359.822 279.883 359.678 284.336C359.67 284.603 359.661 284.87 359.653 285.137C359.501 289.855 359.358 294.584 359.397 299.32L359.397 299.321C359.537 313.272 359.493 327.229 359.449 341.186C359.442 343.389 359.436 345.592 359.429 347.795V347.796C359.429 350.989 359.577 354.177 359.724 357.352C359.751 357.925 359.777 358.499 359.803 359.072C359.971 362.819 360.101 366.551 359.953 370.287M359.966 270.995L359.953 370.287"
                stroke="white" />
        </g>
        <g filter="url(#filter4_d_257_94)">
            <path
                d="M407.98 283.961C407.334 299.626 407.134 315.305 407.605 330.965C407.993 343.969 407.832 356.966 407.98 369.964C408.019 373.649 407.896 373.74 404.154 373.74C397.853 373.74 391.558 373.681 385.257 373.74C383.053 373.772 382.239 372.95 382.278 370.761C382.504 358.56 382.459 346.352 382.821 334.17C383.344 316.562 382.478 298.992 382.349 281.403C382.349 277.763 382.349 274.13 382.349 270.49C382.349 268.69 383.137 267.9 384.999 267.9C391.862 267.952 398.726 267.952 405.589 267.9C407.353 267.9 408.051 268.612 408.026 270.367C407.942 274.907 407.98 279.434 407.98 283.961Z"
                fill="white" />
            <path
                d="M385.25 373.24L385.252 373.24C389.456 373.201 393.659 373.214 397.86 373.227C399.959 373.233 402.057 373.24 404.154 373.24C405.099 373.24 405.775 373.233 406.275 373.172C406.778 373.11 407.008 373.002 407.135 372.877C407.261 372.754 407.369 372.535 407.429 372.048C407.489 371.561 407.49 370.899 407.48 369.97C407.427 365.27 407.413 360.574 407.4 355.882C407.377 347.58 407.353 339.285 407.106 330.98M385.25 373.24L408.026 270.367M385.25 373.24C384.188 373.255 383.608 373.058 383.28 372.73C382.953 372.402 382.759 371.824 382.778 370.77C382.868 365.88 382.915 360.997 382.962 356.117C383.033 348.801 383.103 341.493 383.32 334.185C383.663 322.666 383.411 311.151 383.16 299.652C383.026 293.563 382.893 287.479 382.849 281.401V281.381V281.36V281.339V281.317V281.296V281.275V281.253V281.232V281.211V281.189V281.168V281.147V281.125V281.104V281.083V281.061V281.04V281.019V280.997V280.976V280.955V280.933V280.912V280.891V280.869V280.848V280.827V280.805V280.784V280.763V280.741V280.72V280.699V280.678V280.656V280.635V280.614V280.592V280.571V280.55V280.528V280.507V280.486V280.464V280.443V280.422V280.4V280.379V280.358V280.336V280.315V280.294V280.272V280.251V280.23V280.208V280.187V280.166V280.145V280.123V280.102V280.081V280.059V280.038V280.017V279.995V279.974V279.953V279.931V279.91V279.889V279.867V279.846V279.825V279.803V279.782V279.761V279.74V279.718V279.697V279.676V279.654V279.633V279.612V279.59V279.569V279.548V279.526V279.505V279.484V279.462V279.441V279.42V279.398V279.377V279.356V279.335V279.313V279.292V279.271V279.249V279.228V279.207V279.185V279.164V279.143V279.121V279.1V279.079V279.057V279.036V279.015V278.994V278.972V278.951V278.93V278.908V278.887V278.866V278.844V278.823V278.802V278.78V278.759V278.738V278.716V278.695V278.674V278.653V278.631V278.61V278.589V278.567V278.546V278.525V278.503V278.482V278.461V278.439V278.418V278.397V278.375V278.354V278.333V278.312V278.29V278.269V278.248V278.226V278.205V278.184V278.162V278.141V278.12V278.098V278.077V278.056V278.035V278.013V277.992V277.971V277.949V277.928V277.907V277.885V277.864V277.843V277.821V277.8V277.779V277.757V277.736V277.715V277.694V277.672V277.651V277.63V277.608V277.587V277.566V277.544V277.523V277.502V277.48V277.459V277.438V277.417V277.395V277.374V277.353V277.331V277.31V277.289V277.267V277.246V277.225V277.203V277.182V277.161V277.14V277.118V277.097V277.076V277.054V277.033V277.012V276.99V276.969V276.948V276.926V276.905V276.884V276.863V276.841V276.82V276.799V276.777V276.756V276.735V276.713V276.692V276.671V276.649V276.628V276.607V276.586V276.564V276.543V276.522V276.5V276.479V276.458V276.436V276.415V276.394V276.372V276.351V276.33V276.309V276.287V276.266V276.245V276.223V276.202V276.181V276.159V276.138V276.117V276.096V276.074V276.053V276.032V276.01V275.989V275.968V275.946V275.925V275.904V275.882V275.861V275.84V275.819V275.797V275.776V275.755V275.733V275.712V275.691V275.669V275.648V275.627V275.605V275.584V275.563V275.542V275.52V275.499V275.478V275.456V275.435V275.414V275.392V275.371V275.35V275.328V275.307V275.286V275.265V275.243V275.222V275.201V275.179V275.158V275.137V275.115V275.094V275.073V275.051V275.03V275.009V274.988V274.966V274.945V274.924V274.902V274.881V274.86V274.838V274.817V274.796V274.774V274.753V274.732V274.711V274.689V274.668V274.647V274.625V274.604V274.583V274.561V274.54V274.519V274.497V274.476V274.455V274.434V274.412V274.391V274.37V274.348V274.327V274.306V274.284V274.263V274.242V274.22V274.199V274.178V274.157V274.135V274.114V274.093V274.071V274.05V274.029V274.007V273.986V273.965V273.943V273.922V273.901V273.88V273.858V273.837V273.816V273.794V273.773V273.752V273.73V273.709V273.688V273.666V273.645V273.624V273.602V273.581V273.56V273.539V273.517V273.496V273.475V273.453V273.432V273.411V273.389V273.368V273.347V273.325V273.304V273.283V273.262V273.24V273.219V273.198V273.176V273.155V273.134V273.112V273.091V273.07V273.048V273.027V273.006V272.984V272.963V272.942V272.921V272.899V272.878V272.857V272.835V272.814V272.793V272.771V272.75V272.729V272.707V272.686V272.665V272.643V272.622V272.601V272.579V272.558V272.537V272.516V272.494V272.473V272.452V272.43V272.409V272.388V272.366V272.345V272.324V272.302V272.281V272.26V272.238V272.217V272.196V272.175V272.153V272.132V272.111V272.089V272.068V272.047V272.025V272.004V271.983V271.961V271.94V271.919V271.897V271.876V271.855V271.833V271.812V271.791V271.769V271.748V271.727V271.706V271.684V271.663V271.642V271.62V271.599V271.578V271.556V271.535V271.514V271.492V271.471V271.45V271.428V271.407V271.386V271.364V271.343V271.322V271.3V271.279V271.258V271.237V271.215V271.194V271.173V271.151V271.13V271.109V271.087V271.066V271.045V271.023V271.002V270.981V270.959V270.938V270.917V270.895V270.874V270.853V270.831V270.81V270.789V270.767V270.746V270.725V270.703V270.682V270.661V270.639V270.618V270.597V270.575V270.554V270.533V270.512V270.49C382.849 269.65 383.034 269.163 383.326 268.876C383.62 268.587 384.125 268.4 384.999 268.4V267.9L384.995 268.4C391.86 268.452 398.726 268.452 405.591 268.4M385.25 373.24L405.589 267.9M407.106 330.98L407.605 330.965M407.106 330.98C407.106 330.98 407.106 330.98 407.106 330.98L407.605 330.965M407.106 330.98C406.634 315.309 406.834 299.622 407.48 283.95C407.48 282.87 407.478 281.789 407.476 280.707C407.469 277.265 407.462 273.815 407.526 270.359M407.605 330.965C407.853 339.276 407.877 347.584 407.9 355.891C407.913 360.582 407.927 365.273 407.98 369.964C408.019 373.649 407.896 373.74 404.154 373.74C402.054 373.74 399.954 373.733 397.854 373.727C393.655 373.714 389.458 373.701 385.257 373.74L407.605 330.965ZM407.526 270.359C407.526 270.359 407.526 270.358 407.526 270.358L408.026 270.367M407.526 270.359C407.526 270.359 407.526 270.36 407.526 270.36L408.026 270.367M407.526 270.359C407.538 269.531 407.374 269.081 407.123 268.826C406.871 268.571 406.422 268.4 405.591 268.4M408.026 270.367C408.051 268.612 407.353 267.9 405.589 267.9M405.591 268.4C405.592 268.4 405.592 268.4 405.593 268.4L405.589 267.9M405.591 268.4C405.59 268.4 405.59 268.4 405.589 268.4V267.9"
                stroke="white" />
        </g>
    </g>
    <defs>
        <filter id="filter0_d_257_94" x="210.417" y="241.304" width="131.964" height="159.539"
            filterUnits="userSpaceOnUse" color-interpolation-filters="sRGB">
            <feFlood flood-opacity="0" result="BackgroundImageFix" />
            <feColorMatrix in="SourceAlpha" type="matrix"
                values="0 0 0 0 0 0 0 0 0 0 0 0 0 0 0 0 0 0 127 0" result="hardAlpha" />
            <feOffset />
            <feGaussianBlur stdDeviation="12.5" />
            <feComposite in2="hardAlpha" operator="out" />
            <feColorMatrix type="matrix" values="0 0 0 0 1 0 0 0 0 1 0 0 0 0 1 0 0 0 0.5 0" />
            <feBlend mode="normal" in2="BackgroundImageFix" result="effect1_dropShadow_257_94" />
            <feBlend mode="normal" in="SourceGraphic" in2="effect1_dropShadow_257_94" result="shape" />
        </filter>
        <filter id="filter1_d_257_94" x="102.429" y="241.269" width="140.553" height="159.749"
            filterUnits="userSpaceOnUse" color-interpolation-filters="sRGB">
            <feFlood flood-opacity="0" result="BackgroundImageFix" />
            <feColorMatrix in="SourceAlpha" type="matrix"
                values="0 0 0 0 0 0 0 0 0 0 0 0 0 0 0 0 0 0 127 0" result="hardAlpha" />
            <feOffset />
            <feGaussianBlur stdDeviation="12.5" />
            <feComposite in2="hardAlpha" operator="out" />
            <feColorMatrix type="matrix" values="0 0 0 0 1 0 0 0 0 1 0 0 0 0 1 0 0 0 0.5 0" />
            <feBlend mode="normal" in2="BackgroundImageFix" result="effect1_dropShadow_257_94" />
            <feBlend mode="normal" in="SourceGraphic" in2="effect1_dropShadow_257_94" result="shape" />
        </filter>
        <filter id="filter2_d_257_94" x="10.9766" y="241.098" width="130.746" height="159.611"
            filterUnits="userSpaceOnUse" color-interpolation-filters="sRGB">
            <feFlood flood-opacity="0" result="BackgroundImageFix" />
            <feColorMatrix in="SourceAlpha" type="matrix"
                values="0 0 0 0 0 0 0 0 0 0 0 0 0 0 0 0 0 0 127 0" result="hardAlpha" />
            <feOffset />
            <feGaussianBlur stdDeviation="12.5" />
            <feComposite in2="hardAlpha" operator="out" />
            <feColorMatrix type="matrix" values="0 0 0 0 1 0 0 0 0 1 0 0 0 0 1 0 0 0 0.5 0" />
            <feBlend mode="normal" in2="BackgroundImageFix" result="effect1_dropShadow_257_94" />
            <feBlend mode="normal" in="SourceGraphic" in2="effect1_dropShadow_257_94" result="shape" />
        </filter>
        <filter id="filter3_d_257_94" x="309.716" y="242.892" width="75.8018" height="155.847"
            filterUnits="userSpaceOnUse" color-interpolation-filters="sRGB">
            <feFlood flood-opacity="0" result="BackgroundImageFix" />
            <feColorMatrix in="SourceAlpha" type="matrix"
                values="0 0 0 0 0 0 0 0 0 0 0 0 0 0 0 0 0 0 127 0" result="hardAlpha" />
            <feOffset />
            <feGaussianBlur stdDeviation="12.5" />
            <feComposite in2="hardAlpha" operator="out" />
            <feColorMatrix type="matrix" values="0 0 0 0 1 0 0 0 0 1 0 0 0 0 1 0 0 0 0.5 0" />
            <feBlend mode="normal" in2="BackgroundImageFix" result="effect1_dropShadow_257_94" />
            <feBlend mode="normal" in="SourceGraphic" in2="effect1_dropShadow_257_94" result="shape" />
        </filter>
        <filter id="filter4_d_257_94" x="357.276" y="242.9" width="75.75" height="155.841"
            filterUnits="userSpaceOnUse" color-interpolation-filters="sRGB">
            <feFlood flood-opacity="0" result="BackgroundImageFix" />
            <feColorMatrix in="SourceAlpha" type="matrix"
                values="0 0 0 0 0 0 0 0 0 0 0 0 0 0 0 0 0 0 127 0" result="hardAlpha" />
            <feOffset />
            <feGaussianBlur stdDeviation="12.5" />
            <feComposite in2="hardAlpha" operator="out" />
            <feColorMatrix type="matrix" values="0 0 0 0 1 0 0 0 0 1 0 0 0 0 1 0 0 0 0.5 0" />
            <feBlend mode="normal" in2="BackgroundImageFix" result="effect1_dropShadow_257_94" />
            <feBlend mode="normal" in="SourceGraphic" in2="effect1_dropShadow_257_94" result="shape" />
        </filter>
        <linearGradient id="paint0_linear_257_94" x1="317.132" y1="112.685" x2="124.921"
            y2="116.023" gradientUnits="userSpaceOnUse">
            <stop stop-color="#8A0094" />
            <stop offset="1" stop-color="#D51664" />
        </linearGradient>
        <linearGradient id="paint1_linear_257_94" x1="323.918" y1="113.333" x2="129.089"
            y2="115.525" gradientUnits="userSpaceOnUse">
            <stop stop-color="#8A0094" />
            <stop offset="1" stop-color="#D51664" />
        </linearGradient>
        <linearGradient id="paint2_linear_257_94" x1="319.394" y1="113.333" x2="129.088" y2="115.48"
            gradientUnits="userSpaceOnUse">
            <stop stop-color="#8A0094" />
            <stop offset="1" stop-color="#D51664" />
        </linearGradient>
        <clipPath id="clip0_257_94">
            <rect width="448" height="411" fill="white" />
        </clipPath>
    </defs>
</svg>
    